<?xml version="1.0" standalone="no"?>
<!DOCTYPE svg PUBLIC "-//W3C//DTD SVG 20010904//EN"
 "http://www.w3.org/TR/2001/REC-SVG-20010904/DTD/svg10.dtd">
<svg version="1.0" xmlns="http://www.w3.org/2000/svg"
 width="1280.000000pt" height="1280.000000pt" viewBox="0 0 1280.000000 1280.000000"
 preserveAspectRatio="xMidYMid meet">
<metadata>
Created by potrace 1.15, written by Peter Selinger 2001-2017
</metadata>
<g transform="translate(0.000000,1280.000000) scale(0.100000,-0.100000)"
fill="#000000" stroke="none">
<path d="M438 12766 c-222 -112 -370 -307 -422 -559 -14 -69 -16 -621 -16
-5779 0 -3895 3 -5723 11 -5767 24 -151 97 -296 206 -412 105 -111 207 -171
388 -231 33 -11 1077 -13 5775 -16 3946 -2 5756 1 5803 8 247 38 471 200 583
421 l34 69 0 5926 0 5927 -42 81 c-58 109 -199 252 -313 316 l-80 45 -5930 2
-5930 2 -67 -33z m4237 -2386 c621 -40 1101 -158 1468 -361 583 -324 942 -862
1032 -1543 19 -151 20 -452 0 -620 -113 -964 -659 -1603 -1640 -1916 -423
-135 -999 -199 -1536 -171 -129 6 -249 14 -266 18 l-33 5 0 -1266 0 -1266
-795 0 -795 0 2 3493 3 3492 140 21 c339 52 845 96 1310 113 318 12 930 12
1110 1z m5170 -1885 c341 -33 598 -87 859 -179 102 -37 236 -93 236 -99 -1
-12 -280 -1090 -283 -1093 -2 -2 -47 16 -101 41 -163 77 -308 128 -492 174
-201 51 -309 65 -514 65 -157 0 -196 -4 -261 -22 -161 -44 -266 -120 -317
-230 -24 -50 -27 -70 -27 -157 0 -117 17 -163 87 -234 111 -112 291 -201 733
-361 460 -167 728 -316 966 -539 291 -271 447 -682 425 -1121 -34 -697 -449
-1199 -1191 -1439 -306 -99 -621 -143 -1030 -143 -482 -1 -923 68 -1315 204
-144 50 -340 142 -340 160 0 11 271 1118 276 1126 1 2 67 -28 146 -66 301
-148 704 -266 1027 -303 132 -15 400 -6 501 16 179 40 313 136 359 260 25 68
31 192 11 266 -26 98 -111 189 -248 266 -87 49 -232 108 -482 198 -414 148
-656 270 -885 443 -252 192 -437 435 -519 684 -92 276 -86 617 16 922 214 638
854 1078 1698 1165 139 14 502 12 665 -4z"/>
<path d="M4060 9174 c-160 -17 -240 -27 -270 -34 -19 -4 -47 -11 -62 -14 l-28
-6 0 -1044 0 -1044 23 -5 c147 -36 633 -44 827 -14 175 28 345 79 470 142 148
74 322 221 406 345 165 239 228 620 153 920 -15 61 -55 173 -75 213 -97 189
-277 347 -496 436 -211 85 -317 103 -648 106 -146 2 -281 1 -300 -1z"/>
</g>
</svg>
